<svg xmlns="http://www.w3.org/2000/svg" xmlns:xlink="http://www.w3.org/1999/xlink" width="400" height="400" viewBox="0 0 400 400"><rect width="100%" height="100%" fill="#DDDDDD"/><path d="M83.04 204.89L95.14 204.89L95.14 191.89Q95.14 190.04 95.39 187.82L95.39 187.82L83.04 204.89ZM101.06 204.89L106.06 204.89L106.06 208.83Q106.06 209.38 105.70 209.78Q105.34 210.17 104.69 210.17L104.69 210.17L101.06 210.17L101.06 219.88L95.14 219.88L95.14 210.17L78.37 210.17Q77.68 210.17 77.16 209.75Q76.64 209.32 76.50 208.69L76.50 208.69L75.78 205.25L94.62 180.09L101.06 180.09L101.06 204.89ZM137.99 200L137.99 200Q137.99 205.20 136.87 209.03Q135.76 212.87 133.79 215.37Q131.83 217.88 129.15 219.10Q126.47 220.32 123.36 220.32L123.36 220.32Q120.25 220.32 117.60 219.10Q114.94 217.88 112.99 215.37Q111.04 212.87 109.94 209.03Q108.84 205.20 108.84 200L108.84 200Q108.84 194.77 109.94 190.95Q111.04 187.13 112.99 184.63Q114.94 182.13 117.60 180.90Q120.25 179.68 123.36 179.68L123.36 179.68Q126.47 179.68 129.15 180.90Q131.83 182.13 133.79 184.63Q135.76 187.13 136.87 190.95Q137.99 194.77 137.99 200ZM130.97 200L130.97 200Q130.97 195.68 130.34 192.85Q129.71 190.02 128.65 188.34Q127.59 186.66 126.22 185.99Q124.84 185.31 123.36 185.31L123.36 185.31Q121.90 185.31 120.54 185.99Q119.18 186.66 118.13 188.34Q117.09 190.02 116.47 192.85Q115.85 195.68 115.85 200L115.85 200Q115.85 204.32 116.47 207.15Q117.09 209.98 118.13 211.66Q119.18 213.34 120.54 214.01Q121.90 214.69 123.36 214.69L123.36 214.69Q124.84 214.69 126.22 214.01Q127.59 213.34 128.65 211.66Q129.71 209.98 130.34 207.15Q130.97 204.32 130.97 200ZM169.89 200L169.89 200Q169.89 205.20 168.77 209.03Q167.66 212.87 165.69 215.37Q163.73 217.88 161.05 219.10Q158.37 220.32 155.26 220.32L155.26 220.32Q152.15 220.32 149.50 219.10Q146.84 217.88 144.89 215.37Q142.94 212.87 141.84 209.03Q140.74 205.20 140.74 200L140.74 200Q140.74 194.77 141.84 190.95Q142.94 187.13 144.89 184.63Q146.84 182.13 149.50 180.90Q152.15 179.68 155.26 179.68L155.26 179.68Q158.37 179.68 161.05 180.90Q163.73 182.13 165.69 184.63Q167.66 187.13 168.77 190.95Q169.89 194.77 169.89 200ZM162.88 200L162.88 200Q162.88 195.68 162.24 192.85Q161.61 190.02 160.55 188.34Q159.49 186.66 158.12 185.99Q156.74 185.31 155.26 185.31L155.26 185.31Q153.80 185.31 152.44 185.99Q151.08 186.66 150.03 188.34Q148.99 190.02 148.37 192.85Q147.75 195.68 147.75 200L147.75 200Q147.75 204.32 148.37 207.15Q148.99 209.98 150.03 211.66Q151.08 213.34 152.44 214.01Q153.80 214.69 155.26 214.69L155.26 214.69Q156.74 214.69 158.12 214.01Q159.49 213.34 160.55 211.66Q161.61 209.98 162.24 207.15Q162.88 204.32 162.88 200ZM213.56 210.78L209.96 214.33L200.63 205.00L191.23 214.38L187.63 210.83L197.03 201.40L188.07 192.44L191.64 188.86L200.61 197.83L209.52 188.92L213.15 192.49L204.21 201.43L213.56 210.78ZM237.37 204.89L249.47 204.89L249.47 191.89Q249.47 190.04 249.72 187.82L249.72 187.82L237.37 204.89ZM255.39 204.89L260.39 204.89L260.39 208.83Q260.39 209.38 260.03 209.78Q259.68 210.17 259.02 210.17L259.02 210.17L255.39 210.17L255.39 219.88L249.47 219.88L249.47 210.17L232.70 210.17Q232.01 210.17 231.49 209.75Q230.97 209.32 230.83 208.69L230.83 208.69L230.11 205.25L248.95 180.09L255.39 180.09L255.39 204.89ZM292.32 200L292.32 200Q292.32 205.20 291.20 209.03Q290.09 212.87 288.12 215.37Q286.16 217.88 283.48 219.10Q280.80 220.32 277.69 220.32L277.69 220.32Q274.58 220.32 271.93 219.10Q269.27 217.88 267.32 215.37Q265.37 212.87 264.27 209.03Q263.17 205.20 263.17 200L263.17 200Q263.17 194.77 264.27 190.95Q265.37 187.13 267.32 184.63Q269.27 182.13 271.93 180.90Q274.58 179.68 277.69 179.68L277.69 179.68Q280.80 179.68 283.48 180.90Q286.16 182.13 288.12 184.63Q290.09 187.13 291.20 190.95Q292.32 194.77 292.32 200ZM285.31 200L285.31 200Q285.31 195.68 284.67 192.85Q284.04 190.02 282.98 188.34Q281.92 186.66 280.55 185.99Q279.17 185.31 277.69 185.31L277.69 185.31Q276.23 185.31 274.87 185.99Q273.51 186.66 272.46 188.34Q271.42 190.02 270.80 192.85Q270.18 195.68 270.18 200L270.18 200Q270.18 204.32 270.80 207.15Q271.42 209.98 272.46 211.66Q273.51 213.34 274.87 214.01Q276.23 214.69 277.69 214.69L277.69 214.69Q279.17 214.69 280.55 214.01Q281.92 213.34 282.98 211.66Q284.04 209.98 284.67 207.15Q285.31 204.32 285.31 200ZM324.22 200L324.22 200Q324.22 205.20 323.10 209.03Q321.99 212.87 320.02 215.37Q318.06 217.88 315.38 219.10Q312.69 220.32 309.59 220.32L309.59 220.32Q306.48 220.32 303.83 219.10Q301.17 217.88 299.22 215.37Q297.27 212.87 296.17 209.03Q295.07 205.20 295.07 200L295.07 200Q295.07 194.77 296.17 190.95Q297.27 187.13 299.22 184.63Q301.17 182.13 303.83 180.90Q306.48 179.68 309.59 179.68L309.59 179.68Q312.69 179.68 315.38 180.90Q318.06 182.13 320.02 184.63Q321.99 187.13 323.10 190.95Q324.22 194.77 324.22 200ZM317.20 200L317.20 200Q317.20 195.68 316.57 192.85Q315.94 190.02 314.88 188.34Q313.82 186.66 312.45 185.99Q311.07 185.31 309.59 185.31L309.59 185.31Q308.13 185.31 306.77 185.99Q305.41 186.66 304.36 188.34Q303.32 190.02 302.70 192.85Q302.08 195.68 302.08 200L302.08 200Q302.08 204.32 302.70 207.15Q303.32 209.98 304.36 211.66Q305.41 213.34 306.77 214.01Q308.13 214.69 309.59 214.69L309.59 214.69Q311.07 214.69 312.45 214.01Q313.82 213.34 314.88 211.66Q315.94 209.98 316.57 207.15Q317.20 204.32 317.20 200Z" fill="#999999"/></svg>